<svg xmlns="http://www.w3.org/2000/svg" fill="none" viewBox="0 0 40 40"><circle cx="20" cy="20" r="20" fill="currentColor"/><g fill="#fff" clip-path="url(#clip0)"><path d="M26.753 26.266l-4.498 2.514-1.983 1.106c-.116.063-.272-.013-.272-.151v-9.553a.373.373 0 00-.194-.326l-1.776-.993c-.117-.063-.272.012-.272.15v9.465c0 .138-.156.226-.272.15l-1.776-.992a.373.373 0 01-.194-.327v-9.64a.373.373 0 00-.195-.327l-1.775-.993c-.117-.063-.273.012-.273.15v9.465c0 .138-.155.226-.272.15l-1.775-.992a.373.373 0 01-.195-.327v-9.64a.373.373 0 00-.194-.327l-1.815-1.006c-.116-.063-.272.013-.272.151V26.04c0 .139.078.264.194.327l10.862 6.084a.425.425 0 00.388 0l10.862-6.084a.373.373 0 00.194-.326V24.04c0-.138-.155-.226-.272-.15l-4.225 2.375zM17.745 11.145l2.06 1.157a.425.425 0 00.39 0l2.06-1.157 1.983-1.106a.174.174 0 000-.302l-1.776-.993a.424.424 0 00-.388 0l-1.867 1.044a.424.424 0 01-.389 0L17.94 8.744a.424.424 0 00-.389 0l-1.775.993a.174.174 0 000 .302l1.97 1.106z"/><path d="M11.277 12.251l1.776-.993a.424.424 0 01.389 0l4.303 2.414 2.06 1.156a.424.424 0 00.39 0l6.363-3.557a.424.424 0 01.39 0l1.775.993a.174.174 0 010 .301l-6.48 3.62-2.061 1.157a.425.425 0 01-.39 0l-2.06-1.157-6.48-3.62c-.104-.075-.104-.238.025-.314zM22.242 20.924v-1.999c0-.138.078-.264.195-.326l8.528-4.777c.116-.063.272.013.272.151v1.999a.373.373 0 01-.194.326l-8.529 4.777c-.116.063-.272-.013-.272-.151zM22.242 25.964v-1.998c0-.139.078-.264.195-.327l8.528-4.776c.116-.063.272.012.272.15v1.999a.373.373 0 01-.194.327l-8.529 4.776c-.116.063-.272-.025-.272-.15z"/></g><defs><clipPath id="clip0"><path fill="#fff" d="M8.75 7.5h22.5v25H8.75z"/></clipPath></defs></svg>