<svg width="16" height="24" viewBox="0 0 16 24" fill="none" xmlns="http://www.w3.org/2000/svg">
<path d="M8.0039 23.9668V17.9514C8.0039 17.9363 8.01169 17.9287 8.01948 17.9212L15.9844 13.457C15.9922 13.4494 16 13.4418 16 13.4267V11.7167C16 11.694 15.9844 11.6788 15.961 11.6788C15.9532 11.6788 15.9454 11.6788 15.9454 11.6864L8.05845 16.1128C8.04286 16.1203 8.01948 16.1203 8.01169 16.0976C8.01169 16.0901 8.0039 16.0825 8.0039 16.0825V14.3725C8.0039 14.3574 8.01169 14.3498 8.01948 14.3422L15.9844 9.87802C15.9922 9.87045 16 9.86288 16 9.84775V8.13773C16 8.11503 15.9844 8.0999 15.961 8.0999C15.9532 8.0999 15.9454 8.0999 15.9454 8.10746L8.05845 12.5263C8.04286 12.5338 8.01948 12.5338 8.01169 12.5111C8.01169 12.5036 8.0039 12.496 8.0039 12.496V10.786C8.0039 10.7709 8.01169 10.7633 8.01948 10.7557L15.9844 6.29151C15.9922 6.28395 16 6.27638 16 6.26125V4.52096C16 4.49826 15.9844 4.47556 15.961 4.46043L8.03507 0.0113497C8.01169 -0.00378323 7.98831 -0.00378323 7.96493 0.0113497L6.453 0.858793C6.43741 0.86636 6.42962 0.889059 6.43741 0.904192C6.43741 0.911759 6.4452 0.911759 6.453 0.919325L14.34 5.33814C14.3556 5.34571 14.3634 5.3684 14.3556 5.3911C14.3556 5.39867 14.3478 5.39867 14.34 5.40624L12.8281 6.25368C12.8047 6.26881 12.7735 6.26881 12.7579 6.25368L4.83975 1.8046C4.81637 1.78947 4.78519 1.78947 4.76181 1.8046L3.25767 2.65204C3.24208 2.65961 3.23429 2.68231 3.24208 2.69744C3.24208 2.70501 3.24988 2.70501 3.25767 2.71258L11.1447 7.13896C11.1603 7.14652 11.168 7.16922 11.1603 7.18436C11.1603 7.19192 11.1525 7.19192 11.1447 7.19949L9.64053 8.04693C9.61715 8.06207 9.58597 8.06207 9.56259 8.04693L1.63663 3.59785C1.61325 3.58272 1.58207 3.58272 1.55869 3.59785L0 4.47556V19.5253C0 19.5404 0.00779347 19.548 0.0155869 19.5555L1.54311 20.4105C1.55869 20.4181 1.58207 20.4181 1.58987 20.3954C1.58987 20.3878 1.59766 20.3803 1.59766 20.3803V5.4365C1.59766 5.4138 1.61325 5.39867 1.63663 5.39867C1.64442 5.39867 1.65222 5.39867 1.65222 5.40624L3.17974 6.26125C3.18753 6.26881 3.19532 6.27638 3.19532 6.29151V21.3185C3.19532 21.3336 3.20312 21.3412 3.21091 21.3488L4.73843 22.2038C4.75402 22.2113 4.7774 22.2113 4.79299 22.1886C4.79299 22.1811 4.80078 22.1735 4.80078 22.1735V7.22975C4.80078 7.20706 4.81637 7.19192 4.83975 7.19192C4.84754 7.19192 4.85533 7.19192 4.85533 7.19949L6.38285 8.0545C6.39065 8.06207 6.39844 8.06963 6.39844 8.08476V23.1118C6.39844 23.1269 6.40624 23.1345 6.41403 23.142L7.94155 23.997C7.95714 24.0046 7.98052 23.997 7.98831 23.9819C7.9961 23.9743 8.0039 23.9743 8.0039 23.9668Z" fill="currentColor"/>
</svg>
